<svg xmlns="http://www.w3.org/2000/svg" id="Layer_1" data-name="Layer 1" viewBox="0 0 521.71 263.13"><defs><style>.cls-1{fill:#fff;}</style></defs><path class="cls-1" d="M261.12,4a.42.42,0,1,0,.42.42A.42.42,0,0,0,261.12,4Z"/><path class="cls-1" d="M251.14,98.57C266,103,273,93.82,273.71,85.73c.88-9.86-6.22-15.67-15.31-15.67s-13.82,5.81-14.95,11.09A19.66,19.66,0,0,0,244,91.42a0,0,0,0,1-.08,0c-5.12-6.76-2.7-13.08-2.24-14.13,0,0,0-.07-.07,0a6.55,6.55,0,0,0-2.53,4.1,0,0,0,0,1-.08,0,28.15,28.15,0,0,1,0-4.27s0,0-.07,0a8,8,0,0,0-1.82,2.42,0,0,0,0,1-.08,0,8,8,0,0,1,.68-2.85,0,0,0,0,0,0-.06c-1,.2-1.68,1.54-1.91,2a0,0,0,0,1-.08,0,4.72,4.72,0,0,1,1.36-3,0,0,0,0,0,0-.06A2.89,2.89,0,0,0,234.91,77s-.08,0-.08,0A6.08,6.08,0,0,1,236,74s0-.07,0-.06a8.89,8.89,0,0,0-1.61.74l-.06,0c-1.07-8.34,4.1-11.69,4.72-12.06a0,0,0,0,1,.06,0,12.55,12.55,0,0,0,0,3.49A4.09,4.09,0,0,0,243.88,69a0,0,0,0,1,0,.06,5.5,5.5,0,0,0-1.26,2.24,0,0,0,0,0,.07,0,14.7,14.7,0,0,1,3.33-2.17s.07,0,0,.06a4.31,4.31,0,0,0-1.56,2.17,13.79,13.79,0,0,1,6.38-2.85.09.09,0,0,1,.05.16,14.68,14.68,0,0,0-3.69,3s0,.09,0,.06c1-.61,5.51-3.39,10-3.39,6.06,0,10.38,1.79,14.77,6.75,0,0,.06,0,0,0-3-4.75-8.41-8.36-16.28-8.36-8.29,0-11.08,2.66-14.14.59-2.07-1.4-1.56-4.79-.85-6.6a.16.16,0,0,0-.19-.22c-1.68.43-9.37,3.11-9.37,15.87C231.29,90.69,244.58,103,257,103c5.48,0,9.73-1.66,12.73-4.48.11-.11.1-.12,0,0-8.1,5.6-16.84,1.59-18.62.18a.07.07,0,0,1,.06-.12m10.07-26.79a12.83,12.83,0,0,1,6.52,4.4,12.5,12.5,0,0,1-.41,16.07,12.81,12.81,0,0,1-6.75,4,.07.07,0,0,1-.05-.13,16.86,16.86,0,0,0,5.46-5,12.65,12.65,0,0,0,.36-14,16.94,16.94,0,0,0-5.19-5.24.07.07,0,0,1,.06-.13m-3.75-.06A11.72,11.72,0,0,1,266,82.6a11.38,11.38,0,0,1-2.32,7.21,11.24,11.24,0,0,1-5.69,4c-.07,0-.11-.07-.05-.12a16,16,0,0,0,4.33-4.81,12.05,12.05,0,0,0,1.57-6.22,12.24,12.24,0,0,0-1.89-6.15,16.57,16.57,0,0,0-4.49-4.67.07.07,0,0,1,0-.12m-4.26.73a9,9,0,0,1,4.71,2.49,9.74,9.74,0,0,1,2.73,5.13,9.62,9.62,0,0,1-.71,5.78,8.52,8.52,0,0,1-3.62,3.92c-.06,0-.12,0-.08-.1a14,14,0,0,0,2.1-4.41,10.83,10.83,0,0,0,.18-4.8A11.16,11.16,0,0,0,256.62,76a15.43,15.43,0,0,0-3.47-3.47.07.07,0,0,1,0-.12m-2.76,1.17a6.24,6.24,0,0,1,3.33,2,8.31,8.31,0,0,1,1.93,3.79,8.77,8.77,0,0,1-.13,4.23,6.84,6.84,0,0,1-2,3.29.07.07,0,0,1-.11-.08,11.92,11.92,0,0,0,.68-7.1,10.75,10.75,0,0,0-1.36-3.36,9.9,9.9,0,0,0-2.37-2.62.07.07,0,0,1,.05-.12m0,12.38a.07.07,0,0,1-.11-.07,15.3,15.3,0,0,0,.38-2.68,16.91,16.91,0,0,0-.09-2.76,14.39,14.39,0,0,0-.55-2.67,8.13,8.13,0,0,0-1.18-2.38.06.06,0,0,1,.07-.1,4.37,4.37,0,0,1,2.25,1.93,7.17,7.17,0,0,1,1,3,7.89,7.89,0,0,1-.27,3.17A5.44,5.44,0,0,1,250.41,86"/><path class="cls-1" d="M207.79,4V72.43c0,11.91,8.92,24.5,26.51,37.43a177.49,177.49,0,0,0,26.12,15.74l.7.33.69-.33a177.49,177.49,0,0,0,26.12-15.74c17.6-12.93,26.52-25.52,26.52-37.43V4Zm91.37,33a6.49,6.49,0,0,0-3.24-.91,3.83,3.83,0,0,1,2.74,2.73,12.13,12.13,0,0,1-6.05-1.32c-2.91-1.58-4.33.24-8.43-1.41a1.71,1.71,0,0,0,.79,1.16,4.38,4.38,0,0,1,2.25,3,3.53,3.53,0,0,0-1.75-.48.11.11,0,0,0-.07.19c.48.41,1.75,1.57,1.82,2.45,0,0-2-.43-1.34,0s3.41,1.85,3.91,4.09c0,0-2.54-.64-1.91,0s5.22,2.33,6.05,5.43a6.82,6.82,0,0,0-2.9-1.08s4.89,2.53,4.73,6.43c0,0-8.9-3.79-15-6.79s-10.12-6.25-11.21-9.88c-.65-2.16,1-2.57,1-3.4s-1.3-1.66-3.46-1.07a15.18,15.18,0,0,1-4.42.57,12.18,12.18,0,0,1,2.11,4.21l-.48.14a10.09,10.09,0,0,0-4.78-6.38,8,8,0,0,0-1.62-.67,4.18,4.18,0,0,1-.23.55,3.36,3.36,0,0,1-1,1.21l-.06,0a3.73,3.73,0,0,1-2.07.61h-.07a3.91,3.91,0,0,1,1.26-1.89,3.44,3.44,0,0,1,1.73-.62,6.15,6.15,0,0,0-1.1-.2,3.67,3.67,0,0,1-1.77.23,3.86,3.86,0,0,1-2-1.12h0a4.64,4.64,0,0,1,.51-.23,3.58,3.58,0,0,1,1.78-.23,3.65,3.65,0,0,1,1.79.89,8.35,8.35,0,0,1,1,.21,2.8,2.8,0,0,1-.63-1.19,3.16,3.16,0,0,1,.25-1.86h0a3.31,3.31,0,0,1,.73.87,2.65,2.65,0,0,1,.29.71,3.27,3.27,0,0,1,.05.61,3.39,3.39,0,0,1-.2,1,9.43,9.43,0,0,1,4.44,3c-.13-.54-.7-3.38,1-4.8,1.91-1.57,6.05-.74,6.05-.74-3.48-9.46,15.59-18.08,15.59-18.08a8.67,8.67,0,0,1-3.31,4.72,6.15,6.15,0,0,0,2.73-2,8,8,0,0,1-3.15,5.64,6.91,6.91,0,0,0,2.34-1.54,8.33,8.33,0,0,1-2.09,5.36,3,3,0,0,0,1.58-1.19A6.9,6.9,0,0,1,282.16,28a3.84,3.84,0,0,0,1.32-.91,9.11,9.11,0,0,1,0,2.32c-.16,1.16.75,2.16,4.07,2.16s7.16-3.09,9.31-.67a8.69,8.69,0,0,0-2.59.09c.41,0,4.54.19,4.89,3.4a8,8,0,0,0-2.83-.81S298.83,34.65,299.16,37Zm-38,85.33c-6.1-3-50.07-25.53-50.07-49.88v-43l97.1,54.49C298.1,103.48,266.24,119.79,261.12,122.31Z"/><path class="cls-1" d="M33.34,152.17a14.92,14.92,0,0,0-9-2.59,24.17,24.17,0,0,0-2.78.15c-.86.11-3.1.46-6.7,1.05s-6.47,1-8.61,1.21l.13.61.73-.06a3.34,3.34,0,0,1,.62-.06,3.32,3.32,0,0,1,2.41.9,3.3,3.3,0,0,1,.93,2.5v33.39a3.89,3.89,0,0,1-1.24,2.78,3.82,3.82,0,0,1-2.72,1.11h-.8v.62H19.88v-.62h-.8a3.84,3.84,0,0,1-2.72-1.11,3.88,3.88,0,0,1-1.23-2.78v-36.6q5.49-.93,6.2-1a13.84,13.84,0,0,1,1.7-.09,10.55,10.55,0,0,1,6.91,2.22q3.58,2.83,3.58,9.26A13.65,13.65,0,0,1,31.86,170c-1.53,2.64-4,4-7.35,4a7.5,7.5,0,0,1-3-.74,5.2,5.2,0,0,1-3.15-3.7l-.55.18a6.19,6.19,0,0,0,2.9,5,10.58,10.58,0,0,0,5.49,1.45,10.8,10.8,0,0,0,9-4,14.21,14.21,0,0,0,3-9.07Q38.16,155.63,33.34,152.17Z"/><path class="cls-1" d="M72.6,183.78a17.22,17.22,0,0,1-2.86,4.91,11.23,11.23,0,0,1-1.15,1.14c-1.61,1.36-3.93,2-7,2H52.78V173.41h10.5a3,3,0,0,1,2.06.92,2.91,2.91,0,0,1,.84,2.1v.93h.62V167.6h-.62v.87a3,3,0,0,1-.86,2.16,3.14,3.14,0,0,1-2.11.93H52.78V152.48h12.6a3.47,3.47,0,0,1,2.43,1.11,3.51,3.51,0,0,1,1,2.53v1.11h.62v-7.77a18,18,0,0,1-3.18.74,25.44,25.44,0,0,1-4.17.37H44l.06.61h.74a4.1,4.1,0,0,1,2.78,1,3.2,3.2,0,0,1,1.17,2.5v34.57a4,4,0,0,1-1.2,2.75,3.77,3.77,0,0,1-2.75,1.14H44v.62H69.64l3.57-10H72.6Z"/><path class="cls-1" d="M117,192.17a6.65,6.65,0,0,1-2.34-2.9L98.15,149.7H97.6c0,.91-.77,3-2.29,6.36l-14,33.21a7.05,7.05,0,0,1-2.4,2.9,5.41,5.41,0,0,1-3,1h-.55v.62h12.4v-.62h-.55a2.34,2.34,0,0,1-2-.83,2.62,2.62,0,0,1-.65-1.54,4.77,4.77,0,0,1,.25-1.46L89,178.78h16.67l3.94,10.49a4.55,4.55,0,0,1,.25,1.48,2.58,2.58,0,0,1-.65,1.58,2.32,2.32,0,0,1-1.94.83h-.56v.62h13.89v-.62h-.49A5.49,5.49,0,0,1,117,192.17ZM89.76,176.93l7.78-19.82,7.4,19.82Z"/><path class="cls-1" d="M155,189a17.67,17.67,0,0,1-11.55,3.77A16.26,16.26,0,0,1,130.84,187q-4.78-5.66-4.79-14.91t4.85-14.88a15.65,15.65,0,0,1,1.26-1.31,16.41,16.41,0,0,1,11.67-4.3,16.75,16.75,0,0,1,9.82,2.87q.51.36,1,.75a13.85,13.85,0,0,1,4.5,7.43h.56l-1.24-8.71a25.92,25.92,0,0,0-14.63-4.2q-10.12,0-16.26,6.18t-6.14,16.26q0,10.1,6.14,16.27t15.89,6.23a25,25,0,0,0,5.48-.57,18.09,18.09,0,0,0,11.87-8.62l.74-9.7h-.49Q160,184.95,155,189Z"/><path class="cls-1" d="M196.92,183.78a17.22,17.22,0,0,1-2.86,4.91,11.23,11.23,0,0,1-1.15,1.14,9.76,9.76,0,0,1-5.87,2q-.54,0-1.11,0H177.1V173.41h10.5a3,3,0,0,1,2.07.92,3,3,0,0,1,.83,2.1v.93h.62V167.6h-.62v.87a3,3,0,0,1-.86,2.16,3.13,3.13,0,0,1-2.1.93H177.1V152.48h12.6a3.84,3.84,0,0,1,.68.09,3.64,3.64,0,0,1,1.76,1,3.55,3.55,0,0,1,1,2.53v1.11h.61v-7.77a17.59,17.59,0,0,1-3.18.74,25.42,25.42,0,0,1-4.16.37H168.34l.06.61h.74a4.1,4.1,0,0,1,2.78,1,3.2,3.2,0,0,1,1.17,2.5v34.57a4,4,0,0,1-1.2,2.75,3.75,3.75,0,0,1-2.75,1.14h-.8v.62H194l3.58-10h-.62Z"/><path class="cls-1" d="M274.45,199.77a21,21,0,0,1-6.79-1,42,42,0,0,1-12.59-7.22l-3.95-3.21a27.86,27.86,0,0,0,5.12-6.55,27.07,27.07,0,0,0,3.64-13.33,23.25,23.25,0,0,0-7.78-18,28.91,28.91,0,0,0-8.82-5.44l-.31.38q1.49.77,2.82,1.62a29.38,29.38,0,0,1,6.81,5.85,23.51,23.51,0,0,1,4.09,6.71,16.5,16.5,0,0,1,.72,2.3,25.23,25.23,0,0,1,.74,6.11,24.75,24.75,0,0,1-3,12,25.43,25.43,0,0,1-5.49,7.16q-7-5.88-12.26-10.45L236,175.45a59.36,59.36,0,0,1-8.27-8.34,11.85,11.85,0,0,1-2.5-7.28,8.45,8.45,0,0,1,2.16-5.9,7.37,7.37,0,0,1,5-2.34c.3,0,.6,0,.92,0a8.28,8.28,0,0,1,6.23,2.56A8.39,8.39,0,0,1,241,156.3a11.63,11.63,0,0,1,1.12,4.76h.62l.87-7q-3.89-4.38-10.93-4.39-5.55,0-8.64,3a9.72,9.72,0,0,0-3,6.29c0,.36,0,.72,0,1.08a15.31,15.31,0,0,0,2.66,8.49,13.36,13.36,0,0,0-5.22,4.66,12.43,12.43,0,0,0-1.88,6.88,12.06,12.06,0,0,0,3.46,8.71,17.73,17.73,0,0,0,8.27,4.81,24.51,24.51,0,0,0,6.91,1,22.45,22.45,0,0,0,12.65-3.7l2,1.62q2.86,2.33,5,4a35.29,35.29,0,0,0,6.17,3.79c.46.21.91.41,1.36.59a23.2,23.2,0,0,0,8.83,1.94,17.65,17.65,0,0,0,10.66-3.59c.46-.34.92-.71,1.37-1.1l-.3-.55A19.69,19.69,0,0,1,274.45,199.77Zm-38.15-7.1a16,16,0,0,1-9.94-3.34q-5.37-4-5.37-9.93A12.24,12.24,0,0,1,224.7,170a59.26,59.26,0,0,0,7.84,7.9q5.29,4.64,13.88,11.79A18.77,18.77,0,0,1,236.3,192.67Z"/><path class="cls-1" d="M306.12,152.17a15,15,0,0,0-9-2.59,24.12,24.12,0,0,0-2.77.15q-1.31.17-6.7,1.05T279.08,152l.12.61.74-.06a3.26,3.26,0,0,1,.62-.06,3.14,3.14,0,0,1,3.33,3.4v33.39a3.88,3.88,0,0,1-1.23,2.78,3.84,3.84,0,0,1-2.72,1.11h-.8v.62h13.52v-.62h-.8a3.84,3.84,0,0,1-2.72-1.11,3.93,3.93,0,0,1-1.24-2.78v-36.6c3.67-.62,5.73-1,6.21-1a13.73,13.73,0,0,1,1.7-.09,10.55,10.55,0,0,1,6.91,2.22q3.58,2.83,3.58,9.26a13.65,13.65,0,0,1-1.67,6.91c-1.52,2.64-4,4-7.34,4a7.5,7.5,0,0,1-3-.74,5.2,5.2,0,0,1-3.15-3.7l-.56.18a6.24,6.24,0,0,0,2.9,5,10.64,10.64,0,0,0,5.5,1.45,10.81,10.81,0,0,0,9-4,14.26,14.26,0,0,0,3-9.07Q310.93,155.63,306.12,152.17Z"/><path class="cls-1" d="M345.37,183.78a17.21,17.21,0,0,1-2.85,4.91,11.3,11.3,0,0,1-1.16,1.14c-1.6,1.36-3.93,2-7,2h-8.83V155.07a3.8,3.8,0,0,1,.56-2,3.74,3.74,0,0,1,3.39-1.92h.8v-.61H316.8v.61h.8a3.78,3.78,0,0,1,2.75,1.15,4,4,0,0,1,1.2,2.74v34.2a4,4,0,0,1-1.2,2.75,3.77,3.77,0,0,1-2.75,1.14h-.8v.62h25.61l3.58-10h-.62Z"/><path class="cls-1" d="M379.14,183.78a17,17,0,0,1-2.86,4.91,10.3,10.3,0,0,1-1.15,1.14c-1.6,1.36-3.93,2-7,2h-8.83V173.41h10.49a3,3,0,0,1,2.07.92,2.9,2.9,0,0,1,.83,2.1v.93h.62V167.6h-.62v.87a2.92,2.92,0,0,1-.86,2.16,3.13,3.13,0,0,1-2.1.93H359.33V152.48h12.59a3.64,3.64,0,0,1,3.46,3.64v1.11H376v-7.77a18,18,0,0,1-3.18.74,25.54,25.54,0,0,1-4.17.37H350.56l.06.61h.75a4.07,4.07,0,0,1,2.77,1,3.2,3.2,0,0,1,1.17,2.5v34.57a3.93,3.93,0,0,1-1.2,2.75,3.73,3.73,0,0,1-2.74,1.14h-.81v.62h25.62l3.58-10h-.62Z"/><path class="cls-1" d="M418.9,151.18h1.17a3.67,3.67,0,0,1,2.65,1.09A3.84,3.84,0,0,1,423.9,155v30.62l-33.65-35.93h-.61l.12,1a46.72,46.72,0,0,1,.43,6.73v32a3.58,3.58,0,0,1-1.11,2.68,3.68,3.68,0,0,1-2.65,1.08h-1.18v.62H398v-.62H396.8a3.68,3.68,0,0,1-2.66-1.08,3.51,3.51,0,0,1-1.11-2.62V158.72l33.64,35.92h.56l-.12-1.11a50.53,50.53,0,0,1-.44-6.79V154.89a3.78,3.78,0,0,1,1.18-2.62,3.67,3.67,0,0,1,2.65-1.09h1.11v-.61H418.9Z"/><path class="cls-1" d="M463.9,150.51H443a27.27,27.27,0,0,1-4.2-.37,18.08,18.08,0,0,1-3.21-.74v7.77l.62-.06v-1.05a3.6,3.6,0,0,1,1-2.56,3.51,3.51,0,0,1,2.5-1.14h11.73v37a4,4,0,0,1-3.95,3.76h-.81v.62h13.52v-.62h-.8a3.82,3.82,0,0,1-2.75-1.11,3.87,3.87,0,0,1-1.2-2.72v-37h11.73a3.75,3.75,0,0,1,3.52,3.7v1.05l.62.06V149.4a23.9,23.9,0,0,1-2.44.64A22.8,22.8,0,0,1,463.9,150.51Z"/><path class="cls-1" d="M502.23,150.57v.61H503a2.35,2.35,0,0,1,2.1,1.24,2.5,2.5,0,0,1,.43,1.3,2.67,2.67,0,0,1-.31,1.23l-9.88,17.35L486.06,155a2.64,2.64,0,0,1,.06-2.59,2.33,2.33,0,0,1,2.1-1.24h.8v-.61H473.83v.61h.87a6.68,6.68,0,0,1,3.55,1,8.08,8.08,0,0,1,2.62,2.54l11.79,19.69v14.87a3.82,3.82,0,0,1-1.21,2.72,3.77,3.77,0,0,1-2.74,1.11h-.8v.62h13.45v-.62h-.74a3.82,3.82,0,0,1-2.81-1.14,3.75,3.75,0,0,1-1.14-2.75V174.52l12.16-19.75a9.64,9.64,0,0,1,2.75-2.57,6.56,6.56,0,0,1,3.49-1h.86v-.61Z"/><rect class="cls-1" x="302.38" y="250.78" width="113.3" height="0.67"/><rect class="cls-1" x="91.46" y="251.93" width="113.3" height="0.67"/><path class="cls-1" d="M76,227.05a10.35,10.35,0,0,1,1.84.3c.43.13.48.46.48.83v1c-.11,1-.78,1.75-2.4,1.75-1.78,0-3.16-2-3.16-4.74,0-3.2,1.4-4.95,3.05-4.95a4.42,4.42,0,0,1,4,3.35h.47l-.1-3.81H79.4l-.45.7a4.83,4.83,0,0,0-2.56-.81c-3.55,0-6,2.38-6,5.63a5,5,0,0,0,4.86,5.24,11.51,11.51,0,0,0,3.75-.85l.84,1,.39-.07V228a.73.73,0,0,1,.48-.73A12.54,12.54,0,0,1,82,227v-.41H76Z"/><path class="cls-1" d="M93.46,230.32c-.36.36-1.47.36-2.55.36-1.49,0-1.77-.15-1.77-1.34v-3.22h1.18a1.53,1.53,0,0,1,1.33.48,3.88,3.88,0,0,1,.49,1.55h.54v-4.48h-.54a3.45,3.45,0,0,1-.49,1.5,1.61,1.61,0,0,1-1.33.43H89.14v-4.2h1.79a12.92,12.92,0,0,1,1.37.09c.67.08,1.49,1.43,1.66,2.07h.5V220.9H85.13v.46a6.44,6.44,0,0,1,1.45.3.72.72,0,0,1,.5.69v7.51a.66.66,0,0,1-.5.7,10.31,10.31,0,0,1-1.45.21v.45H95l.28-3.41h-.52A9.1,9.1,0,0,1,93.46,230.32Z"/><path class="cls-1" d="M104.69,220.62a5.33,5.33,0,0,0-3.93,1.58,5.12,5.12,0,0,0-1.61,4,4.89,4.89,0,0,0,1.76,3.87,5.31,5.31,0,0,0,3.72,1.45,5.59,5.59,0,0,0,3.92-1.48,5.53,5.53,0,0,0,.15-7.83A5.51,5.51,0,0,0,104.69,220.62Zm0,10.32c-2.2,0-3.18-2.2-3.18-4.84,0-3.1,1.19-4.91,3.18-4.91,2.41,0,3.2,2.44,3.2,4.84C107.89,228.82,106.9,230.94,104.69,230.94Z"/><path class="cls-1" d="M125.44,229c0,1-.48,1.48-.91,1.48-.21,0-.6,0-.78-.63s-.24-1.45-.47-2.27c-.33-1.11-1.67-1.48-2.43-1.56v-.09c1.15-.3,3-1,3-2.64s-1.86-2.36-3.48-2.36h-6v.46a8,8,0,0,1,1.34.26.65.65,0,0,1,.5.71v7.53a.66.66,0,0,1-.5.69,8.71,8.71,0,0,1-1.34.22v.45H120v-.45a8.22,8.22,0,0,1-1.32-.22.63.63,0,0,1-.49-.69v-3.59h.9c1.8,0,2.06,1.38,2.21,2.53.24,1.86.87,2.66,2.27,2.66A2.32,2.32,0,0,0,126,229l0-.47h-.57Zm-6.38-3.24h-.84v-4.31h1.21a1.87,1.87,0,0,1,2,2.15C121.48,225.21,120.31,225.73,119.06,225.73Z"/><path class="cls-1" d="M135,227.05a10.35,10.35,0,0,1,1.84.3c.43.13.48.46.48.83v1c-.11,1-.78,1.75-2.4,1.75-1.78,0-3.16-2-3.16-4.74,0-3.2,1.4-4.95,3-4.95a4.42,4.42,0,0,1,4,3.35h.47l-.1-3.81h-.72l-.45.7a4.86,4.86,0,0,0-2.56-.81c-3.54,0-6,2.38-6,5.63a5,5,0,0,0,4.87,5.24,11.5,11.5,0,0,0,3.74-.85l.84,1,.39-.07V228a.73.73,0,0,1,.48-.73A12.54,12.54,0,0,1,141,227v-.41h-6Z"/><path class="cls-1" d="M152.46,230.32c-.36.36-1.47.36-2.55.36-1.49,0-1.77-.15-1.77-1.34v-3.22h1.19a1.52,1.52,0,0,1,1.32.48,4,4,0,0,1,.5,1.55h.54v-4.48h-.54a3.46,3.46,0,0,1-.5,1.5,1.6,1.6,0,0,1-1.32.43h-1.19v-4.2h1.79a12.92,12.92,0,0,1,1.37.09c.67.08,1.49,1.43,1.66,2.07h.5V220.9h-9.33v.46a6.44,6.44,0,0,1,1.45.3.72.72,0,0,1,.5.69v7.51a.66.66,0,0,1-.5.7,10.31,10.31,0,0,1-1.45.21v.45H154l.28-3.41h-.52A9.1,9.1,0,0,1,152.46,230.32Z"/><path class="cls-1" d="M167.63,224.41h.46c.15-.87,1.21-2.86,1.88-2.94a8.88,8.88,0,0,1,1.15-.07h.54v8.44a.72.72,0,0,1-.5.72,15.89,15.89,0,0,1-1.66.21v.45h6.4v-.45a14.52,14.52,0,0,1-1.67-.3.7.7,0,0,1-.49-.69V221.4h.56a7.92,7.92,0,0,1,1.12.07c.68.08,1.8,2.16,1.87,2.94h.47V220.9H167.63Z"/><path class="cls-1" d="M186.91,220.62A5.35,5.35,0,0,0,183,222.2a5.15,5.15,0,0,0-1.6,4,4.89,4.89,0,0,0,1.76,3.87,5.31,5.31,0,0,0,3.72,1.45,5.54,5.54,0,0,0,3.91-1.48,5.51,5.51,0,0,0,.15-7.83A5.47,5.47,0,0,0,186.91,220.62Zm0,10.32c-2.21,0-3.18-2.2-3.18-4.84,0-3.1,1.19-4.91,3.18-4.91,2.41,0,3.2,2.44,3.2,4.84C190.11,228.82,189.12,230.94,186.91,230.94Z"/><path class="cls-1" d="M207.73,221.36c.75,0,2,.3,2,.76a5.49,5.49,0,0,1-.3,1.32c-.39,1.19-.95,2.7-1.84,5-1.12-3.24-1.94-5.58-2.14-6.19a1.11,1.11,0,0,1,0-.36c0-.28,1-.48,1.6-.5v-.46h-5.52v.46a3.94,3.94,0,0,1,1.3.32,1.62,1.62,0,0,1,.78,1.5l-2.08,5.3c-1.08-3.27-1.86-5.61-2.08-6.26a1,1,0,0,1,0-.36c0-.28.95-.48,1.56-.5v-.46h-5.43v.46a3.64,3.64,0,0,1,1.23.3,1.06,1.06,0,0,1,.58.67c.44,1.37,1.69,5.11,3,9h.8l2.88-7.4c.65,1.89,1.49,4.39,2.47,7.4h.77c1.13-3.09,2.56-6.79,3.29-8.61a1.7,1.7,0,0,1,.8-1,4,4,0,0,1,1.26-.34v-.46h-4.78Z"/><path class="cls-1" d="M222.31,221.36a7.48,7.48,0,0,1,2,.52c.48.24.52,1,.52,2v4.63l-6.17-7.62h-4.11v.46a5.88,5.88,0,0,1,2.12.67,1.56,1.56,0,0,1,.5,1.17v5.06c0,1.1-.13,1.8-.52,2.05a6.38,6.38,0,0,1-1.69.46v.46h5.43v-.46a8.18,8.18,0,0,1-2-.52c-.35-.26-.52-.95-.52-2.08V223l6.79,8.35h.89V223.8c0-1,.07-1.77.5-2a5.94,5.94,0,0,1,1.67-.43v-.46h-5.39Z"/><path class="cls-1" d="M232.13,228.54a1.33,1.33,0,1,0,.15,2.64h.59c-.13,1.47-2,2.45-3.19,3.16l.24.5c1-.57,4-2,4-4C234,229.47,233.41,228.54,232.13,228.54Z"/><path class="cls-1" d="M253.68,230.32c-.37.36-1.47.36-2.55.36-1.5,0-1.78-.15-1.78-1.34v-3.22h1.19a1.49,1.49,0,0,1,1.32.48,3.72,3.72,0,0,1,.5,1.55h.54v-4.48h-.54a3.33,3.33,0,0,1-.5,1.5,1.57,1.57,0,0,1-1.32.43h-1.19v-4.2h1.8a12.72,12.72,0,0,1,1.36.09c.67.08,1.49,1.43,1.67,2.07h.5V220.9h-9.33v.46a6.44,6.44,0,0,1,1.45.3.72.72,0,0,1,.5.69v7.51a.66.66,0,0,1-.5.7,10.31,10.31,0,0,1-1.45.21v.45h9.89l.28-3.41H255A9.1,9.1,0,0,1,253.68,230.32Z"/><path class="cls-1" d="M268.8,229.58c-.69-.84-1.75-2.29-3.09-4.09.91-1.12,1.69-2,2.49-2.94a3.05,3.05,0,0,1,1.29-.91,6.7,6.7,0,0,1,1.33-.28v-.46h-5v.46c.67,0,1.67.26,1.67.6a12.74,12.74,0,0,1-2.28,3c-1-1.32-2-2.61-2-3.05s1.15-.56,1.78-.58v-.46h-6.54v.46a6.07,6.07,0,0,1,1.41.28,3.07,3.07,0,0,1,1.1.93c.87,1.08,1.75,2.29,2.84,3.74-1.09,1.32-1.84,2.21-2.77,3.27a3.7,3.7,0,0,1-1.28.91,5.32,5.32,0,0,1-1.34.28v.45h5v-.45c-.68,0-1.71-.21-1.71-.61s1.45-2,2.57-3.33c1,1.28,2.25,2.84,2.25,3.31s-1.08.59-1.77.63v.45h6.55v-.45a6.53,6.53,0,0,1-1.38-.26A3.88,3.88,0,0,1,268.8,229.58Z"/><path class="cls-1" d="M281.44,221.36a6,6,0,0,1,1.84.5c.34.19.52.93.52,2v4.22c0,1-.57,2.61-3,2.61s-2.66-1.55-2.66-2.61v-5.78a.66.66,0,0,1,.5-.69,7.06,7.06,0,0,1,1.32-.24v-.46h-5.71v.46a5.26,5.26,0,0,1,1.29.3.75.75,0,0,1,.5.69v6.1c0,1.58,1.54,3.08,4.37,3.08,1.58,0,4.11-.87,4.11-3.36v-4.41c0-.91.05-1.75.48-2a5.88,5.88,0,0,1,1.69-.41v-.46h-5.26Z"/><path class="cls-1" d="M300.2,222.2l-2.69,6.13-3.18-7.43h-4.69v.46a5.17,5.17,0,0,1,1.86.43A1.36,1.36,0,0,1,292,223v5.3c0,1.13-.16,1.8-.55,2.06a6.06,6.06,0,0,1-1.66.45v.43h5.28v-.45a6.43,6.43,0,0,1-1.82-.52c-.34-.26-.54-.93-.54-2v-6.13h.11l2.85,6.86c.41.93.65,1.47.85,2.08H297l3.81-8.46h.09v7.25a.73.73,0,0,1-.5.71,8.07,8.07,0,0,1-1.58.24v.45h6v-.45a7.62,7.62,0,0,1-1.45-.28.71.71,0,0,1-.43-.67v-7.53a.63.63,0,0,1,.43-.69,10.06,10.06,0,0,1,1.52-.24v-.46h-4.29A5,5,0,0,1,300.2,222.2Z"/><path class="cls-1" d="M318,229.8c-.56-1.41-2.14-5.19-3.74-9.05h-.87c-1.19,2.86-2.49,6-3.63,8.59a2.35,2.35,0,0,1-.87,1.11,4.88,4.88,0,0,1-1.34.32v.45h4.89v-.45c-.56-.07-2-.28-2-.76a2.72,2.72,0,0,1,.17-.82c.15-.45.33-.89.59-1.56h3.7l.93,2.27a.94.94,0,0,1,.06.31c0,.35-1.21.52-1.82.56v.45h5.8v-.45a5.38,5.38,0,0,1-1.27-.32A1.16,1.16,0,0,1,318,229.8ZM311.43,227,313,223.2l1.58,3.83Z"/><path class="cls-1" d="M324.49,228.54a1.33,1.33,0,1,0,.15,2.64h.59c-.13,1.47-2,2.45-3.19,3.16l.24.5c1-.57,4-2,4-4C326.31,229.47,325.77,228.54,324.49,228.54Z"/><path class="cls-1" d="M344.31,225.71v-.09c1.5-.37,2.75-.91,2.75-2.62s-2-2.1-3.2-2.1h-6v.46a4.79,4.79,0,0,1,1.3.3.69.69,0,0,1,.5.69v7.51a.62.62,0,0,1-.48.67,11.41,11.41,0,0,1-1.38.24v.46h6.12c1.56,0,3.79-.83,3.79-2.77S345.52,225.84,344.31,225.71Zm-2.59-4.26c.36,0,1,0,1.23,0a1.69,1.69,0,0,1,1.82,1.88,1.94,1.94,0,0,1-2.1,2.21h-.95Zm1.42,9.26c-.88,0-1.32-.26-1.42-.89V226l1.32,0a2.12,2.12,0,0,1,2.31,2.14C345.35,229.34,344.85,230.71,343.14,230.71Z"/><path class="cls-1" d="M361.08,229.8c-.56-1.41-2.14-5.19-3.74-9.05h-.87c-1.19,2.86-2.49,6-3.63,8.59a2.35,2.35,0,0,1-.87,1.11,4.79,4.79,0,0,1-1.34.32v.45h4.89v-.45c-.56-.07-2-.28-2-.76a2.72,2.72,0,0,1,.17-.82c.15-.45.33-.89.59-1.56H358l.93,2.27a.94.94,0,0,1,.06.31c0,.35-1.21.52-1.82.56v.45H363v-.45a5.58,5.58,0,0,1-1.28-.32A1.18,1.18,0,0,1,361.08,229.8ZM354.55,227l1.58-3.83L357.7,227Z"/><path class="cls-1" d="M372.74,221.36a5.86,5.86,0,0,1,1.34.3.74.74,0,0,1,.48.69v3.18h-5v-3.24a.64.64,0,0,1,.5-.69,7.38,7.38,0,0,1,1.32-.24v-.46h-5.71v.46a8.17,8.17,0,0,1,1.34.3.72.72,0,0,1,.5.69v7.53a.7.7,0,0,1-.5.7,11.36,11.36,0,0,1-1.34.19v.45h5.71v-.45a9,9,0,0,1-1.32-.28.66.66,0,0,1-.5-.67v-3.68h5v3.74a.67.67,0,0,1-.48.7,9.78,9.78,0,0,1-1.34.19v.45h5.71v-.45a7,7,0,0,1-1.34-.28.72.72,0,0,1-.5-.67v-7.53a.66.66,0,0,1,.5-.69,7.45,7.45,0,0,1,1.34-.24v-.46h-5.71Z"/><path class="cls-1" d="M391.67,229.8c-.56-1.41-2.14-5.19-3.74-9.05h-.87c-1.19,2.86-2.49,6-3.63,8.59a2.35,2.35,0,0,1-.87,1.11,4.79,4.79,0,0,1-1.34.32v.45h4.89v-.45c-.56-.07-2-.28-2-.76a2.72,2.72,0,0,1,.17-.82c.16-.45.33-.89.59-1.56h3.7l.93,2.27a.94.94,0,0,1,.06.31c0,.35-1.21.52-1.81.56v.45h5.8v-.45a5.34,5.34,0,0,1-1.28-.32A1.16,1.16,0,0,1,391.67,229.8ZM385.14,227l1.58-3.83L388.3,227Z"/><path class="cls-1" d="M406.3,222.2l-2.69,6.13-3.17-7.43h-4.7v.46a5.12,5.12,0,0,1,1.86.43,1.36,1.36,0,0,1,.47,1.19v5.3c0,1.13-.14,1.8-.53,2.06a6.22,6.22,0,0,1-1.67.45v.43h5.28v-.45a6.43,6.43,0,0,1-1.82-.52c-.34-.26-.54-.93-.54-2v-6.13h.11l2.86,6.86c.4.93.64,1.47.84,2.08h.45l3.81-8.46H407v7.25a.73.73,0,0,1-.5.71,8.07,8.07,0,0,1-1.58.24v.45h6v-.45a7.58,7.58,0,0,1-1.46-.28.71.71,0,0,1-.43-.67v-7.53a.63.63,0,0,1,.43-.69,10.06,10.06,0,0,1,1.52-.24v-.46h-4.29A4.3,4.3,0,0,1,406.3,222.2Z"/><path class="cls-1" d="M424.06,229.8c-.56-1.41-2.14-5.19-3.74-9.05h-.87c-1.19,2.86-2.49,6-3.63,8.59a2.35,2.35,0,0,1-.87,1.11,4.79,4.79,0,0,1-1.34.32v.45h4.89v-.45c-.56-.07-2-.28-2-.76a2.72,2.72,0,0,1,.17-.82c.15-.45.33-.89.59-1.56H421l.93,2.27a.94.94,0,0,1,.06.31c0,.35-1.21.52-1.82.56v.45h5.8v-.45a5.38,5.38,0,0,1-1.27-.32A1.16,1.16,0,0,1,424.06,229.8ZM417.53,227l1.58-3.83,1.58,3.83Z"/><path class="cls-1" d="M434.53,225.38c-.73-.3-1.47-.39-2.33-.77a2.06,2.06,0,0,1-1.46-1.85,1.64,1.64,0,0,1,1.54-1.57c2.19,0,3.14,1.68,3.66,3.26h.45l-.15-3.7h-.6l-.57.67a4.28,4.28,0,0,0-2.38-.78c-1.9,0-3.52,1.28-3.52,2.9a2.89,2.89,0,0,0,1.88,2.88c.91.39,1.49.46,2.4.8s1.67.91,1.67,1.8a1.85,1.85,0,0,1-2.08,1.92c-2.12,0-3.2-1.79-3.79-3.44h-.43l.13,3.88h.61l.56-.69a5.11,5.11,0,0,0,2.83.82c2.19,0,3.81-1.37,3.81-3.25C436.76,226.7,436,226,434.53,225.38Z"/><path class="cls-1" d="M218.19,256.74c-.42.44-1.65.41-2.88.41-1.77,0-2.09-.16-2.09-1.6v-3.87h1.53a1.65,1.65,0,0,1,1.47.55,4.1,4.1,0,0,1,.55,1.7h.48V249h-.48a3.66,3.66,0,0,1-.55,1.62,1.7,1.7,0,0,1-1.47.54h-1.53v-5.06h2.07a12.41,12.41,0,0,1,1.46.07c.76.11,1.69,1.41,1.88,2.18h.47v-2.72h-9.68V246a5.93,5.93,0,0,1,1.39.32.8.8,0,0,1,.55.86v9a.81.81,0,0,1-.55.86,7.49,7.49,0,0,1-1.39.21v.39h10.41l.23-3.38h-.44A9.1,9.1,0,0,1,218.19,256.74Z"/><path class="cls-1" d="M227.76,252.91c-.6-.24-1.2-.31-1.9-.63a1.65,1.65,0,0,1-1.18-1.49,1.32,1.32,0,0,1,1.25-1.28c1.77,0,2.55,1.37,3,2.65h.37l-.12-3h-.5l-.45.55a3.51,3.51,0,0,0-1.94-.64,2.66,2.66,0,0,0-2.86,2.36,2.35,2.35,0,0,0,1.53,2.34c.74.31,1.21.37,1.95.65s1.35.74,1.35,1.45a1.5,1.5,0,0,1-1.68,1.57c-1.73,0-2.61-1.46-3.08-2.79h-.35l.11,3.14h.49l.45-.56a4.1,4.1,0,0,0,2.3.67,2.81,2.81,0,0,0,3.1-2.64C229.57,254,228.93,253.39,227.76,252.91Z"/><path class="cls-1" d="M232.58,252.12H233c.12-.7,1-2.32,1.52-2.39.3,0,.64,0,.94,0h.44v6.85a.57.57,0,0,1-.41.58,13.51,13.51,0,0,1-1.35.18v.37h5.2v-.37a10.74,10.74,0,0,1-1.36-.25.56.56,0,0,1-.4-.56v-6.8H238a8.76,8.76,0,0,1,.91,0c.55.07,1.46,1.76,1.51,2.39h.39v-2.85h-8.22Z"/><path class="cls-1" d="M244.32,255.48a1.18,1.18,0,0,0-1.18,1.18,1.18,1.18,0,0,0,2.36,0A1.18,1.18,0,0,0,244.32,255.48Z"/><path class="cls-1" d="M259.14,256.18v-6.76a18.77,18.77,0,0,1,.24-2.64h-.23a5.11,5.11,0,0,1-2.45.74,4.58,4.58,0,0,1-1.85-.41l-.16.3a3.93,3.93,0,0,0,2,1.06,3.24,3.24,0,0,0,.79-.09v7.89a.84.84,0,0,1-.54.82,8.5,8.5,0,0,1-1.39.18v.39H261v-.39a5.07,5.07,0,0,1-1.31-.25A.89.89,0,0,1,259.14,256.18Z"/><path class="cls-1" d="M268.37,246.76a3.91,3.91,0,0,0-3.94,4.06c0,2.36,1.55,3.64,3.16,3.64a3.47,3.47,0,0,0,2.85-1.53l.12,0c-.28,3.09-1.62,5.95-3.64,5.95a1.09,1.09,0,0,1-1.12-.7c-.24-.54-.16-1.56-1-1.56-.63,0-.95.33-.95,1s.72,1.79,2.35,1.79c3.85,0,6.12-3.65,6.12-7.5S270.24,246.76,268.37,246.76Zm0,7c-1.48,0-2.1-1.07-2.1-3.23,0-1.41.3-3.32,2.1-3.32,1.12,0,2.28,1.16,2.28,3.48S269.26,253.72,268.37,253.72Z"/><path class="cls-1" d="M279.07,249.1c.65,0,3.48-.25,4.54-2.34l-.23-.19a3.69,3.69,0,0,1-2.62.93,3.06,3.06,0,0,1-2.29-.68H278l-1.34,5.87.46.08a2.43,2.43,0,0,1,2.26-1.4,1.92,1.92,0,0,1,2,2c0,1.51-.51,4.08-2.47,4.08-1,0-1.55-.44-1.64-.92s.25-.59.25-1.12a.69.69,0,0,0-.74-.77,1.06,1.06,0,0,0-1.11,1.12c0,1.14,1.23,2.09,3.25,2.09s4.27-1.44,4.27-3.58a3.36,3.36,0,0,0-3.53-3.41,4.1,4.1,0,0,0-2.33.72l.65-2.57C278.14,249.08,278.65,249.1,279.07,249.1Z"/><path class="cls-1" d="M292.45,251.67v-.07a3.07,3.07,0,0,0,1.91-2.36c0-1.55-1.23-2.58-3.28-2.58-1.76,0-3.61,1.31-3.61,3.13,0,1.37.64,2,1.9,2.56v.07a3.41,3.41,0,0,0-2.27,2.85c0,1.47,1.43,2.65,3.5,2.65s4.2-1.3,4.2-3.41A3,3,0,0,0,292.45,251.67ZM288.93,249a2,2,0,0,1,2.16-1.89,1.91,1.91,0,0,1,2.15,1.91,2.34,2.34,0,0,1-1.28,2.43C290,251.12,288.93,250.35,288.93,249Zm1.83,8.47a2.12,2.12,0,0,1-2.37-2.17,3.1,3.1,0,0,1,1.48-2.73c1.58.32,3.4,1.09,3.4,2.67A2.31,2.31,0,0,1,290.76,257.46Z"/></svg>