<svg id="Layer_1" data-name="Layer 1" xmlns="http://www.w3.org/2000/svg" viewBox="0 0 417.067 64.428">
  <path d="m91.021,12.906c.502.483,1,.959,1.496,1.428.46.434.745.794-.156.953-.254.046-.511.099-.769.158-.348.08-.701.173-1.057.279-1.372.407-2.789,1.007-4.254,1.827-1.471.823-2.993,1.869-4.568,3.164l-32.842,27.019c-3.039,2.501-4.78,3.905-8.542,5.163-3.821,1.28-7.276,1.304-10.981-1.195-1.842-1.242-3.684-2.561-5.514-3.919-2.272-1.686-4.527-3.438-6.741-5.191-.086-.058-.146-.15-.159-.26-.023-.199.12-.379.318-.401.492-.057.991-.131,1.478-.221,4.115-.762,7.473-2.327,10.702-4.983l34.576-28.446c2.764-2.273,5.287-3.649,7.611-4.336,2.346-.694,4.49-.688,6.477-.196,2.041.506,3.972,1.527,5.815,2.836,1.829,1.298,3.57,2.878,5.25,4.518.647.633,1.269,1.236,1.86,1.805h0Z" style="fill: #fff; stroke-width: 0px;"/>
  <path d="m104.213,34.873c-2.391,1.838-4.777,3.757-7.176,5.686-8.294,6.669-16.759,13.475-26.13,17.319-9.404,3.857-19.693,4.722-31.575-.533-.107-.044-.191-.138-.217-.259-.042-.196.083-.389.279-.431,5.007-1.099,7.607-2.913,11.507-6.122l33.006-27.154c1.378-1.133,2.696-2.045,3.957-2.759,1.269-.718,2.484-1.238,3.647-1.583.589-.175,1.171-.306,1.744-.396,4.435-.695,5.062,1.032,8.235,3.526.97.762,1.948,1.503,2.943,2.228,1.059.771,2.164,1.542,3.328,2.321,1.155.773,2.362,1.549,3.632,2.333.051.027.097.067.131.119.11.167.065.392-.102.502-2.426,1.612-4.814,3.363-7.188,5.187l-.019.016h0Z" style="fill: #fff; stroke-width: 0px;"/>
  <path d="m.162,29.674h0c-.042-.029-.08-.066-.108-.112-.105-.17-.052-.393.118-.497,2.031-1.254,3.9-2.486,5.663-3.725,1.758-1.236,3.401-2.474,4.986-3.745,1.945-1.559,3.811-3.174,5.707-4.902,1.898-1.73,3.825-3.574,5.891-5.591,1.68-1.639,3.422-3.22,5.25-4.518,1.843-1.309,3.774-2.33,5.815-2.836,1.987-.492,4.131-.498,6.477.195,2.325.688,4.848,2.064,7.611,4.337l4.98,4.097c.092.076.231.167.282.279.067.145.031.324-.099.431l-24.471,20.133c-3.41,2.806-6.645,4.847-11.221,5.386-2.729.322-5.279-.3-7.98-2.417-2.894-2.268-5.838-4.479-8.901-6.514H.162Z" style="fill: #fff; stroke-width: 0px;"/>
  <path d="m395.153,22.271h4.944v16.502c0,3.14,1.136,5.746,3.408,7.817,2.271,2.071,5.077,3.14,8.418,3.14h5.145v-7.95h-4.343c-2.472,0-4.275-1.804-4.275-4.209v-15.3h8.618v-7.282h-8.618v-6.815h-8.352v6.815h-4.944v7.282h0Zm-247.714-11.023c4.276,0,7.885,1.47,10.757,4.342,2.873,2.873,4.342,6.481,4.342,10.756,0,4.209-1.47,7.816-4.342,10.756-2.872,2.873-6.48,4.342-10.757,4.342h-10.021V11.248h10.021Zm0,38.482c6.949,0,12.762-2.271,17.371-6.748,4.677-4.476,7.016-10.022,7.016-16.636s-2.339-12.159-7.016-16.636c-4.609-4.476-10.421-6.747-17.371-6.747h-18.974v46.766h18.974Zm35.897-20.778c1.27-4.342,5.078-7.282,9.42-7.282,4.543,0,8.418,2.94,9.754,7.282h-19.174Zm27.525,6.481c.201-1.337.268-2.338.268-3.073,0-5.211-1.737-9.554-5.279-13.094-3.474-3.541-7.816-5.279-12.961-5.279s-9.487,1.737-13.027,5.279c-3.475,3.474-5.212,7.817-5.212,13.094s1.804,9.621,5.345,13.161c3.608,3.475,8.084,5.212,13.429,5.212,7.015,0,13.028-3.474,16.235-9.019l-8.083-2.338c-2.005,2.472-4.744,3.674-8.151,3.674-4.877,0-8.886-3.073-10.155-7.616h27.592Zm11.949-6.481c1.27-4.342,5.078-7.282,9.421-7.282,4.542,0,8.418,2.94,9.754,7.282h-19.175Zm27.526,6.481c.199-1.337.266-2.338.266-3.073,0-5.211-1.737-9.554-5.277-13.094-3.475-3.541-7.817-5.279-12.961-5.279s-9.488,1.737-13.029,5.279c-3.474,3.474-5.211,7.817-5.211,13.094s1.804,9.621,5.345,13.161c3.608,3.475,8.084,5.212,13.43,5.212,7.015,0,13.027-3.474,16.234-9.019l-8.084-2.338c-2.004,2.472-4.744,3.674-8.15,3.674-4.877,0-8.887-3.073-10.155-7.616h27.593Zm27.307-10.222c1.804,1.937,2.739,4.276,2.739,7.148s-.935,5.212-2.739,7.149c-1.804,1.938-4.009,2.873-6.615,2.873s-4.81-.935-6.614-2.873c-1.804-1.937-2.672-4.276-2.672-7.149s.868-5.211,2.672-7.148c1.804-1.938,4.009-2.873,6.614-2.873s4.811.935,6.615,2.873h0Zm-16.035,39.216v-17.437c3.074,2.472,6.547,3.741,10.49,3.741,4.81,0,8.818-1.737,12.092-5.212,3.273-3.54,4.878-7.883,4.878-13.161s-1.604-9.621-4.878-13.094c-3.274-3.541-7.282-5.279-12.092-5.279-3.942,0-7.416,1.27-10.49,3.742v-2.739h-8.351v49.438h8.351Zm56.875-41.088c-.868-5.812-5.746-9.353-13.295-9.353-7.95,0-13.429,3.541-13.429,10.823,0,4.877,2.406,7.75,8.285,9.687l7.148,2.271c2.606.869,3.876,2.004,3.876,3.34,0,2.138-2.405,3.408-5.613,3.408-3.808,0-6.213-1.67-6.814-4.142l-7.816,1.136c1.001,6.347,6.079,10.222,14.431,10.222,8.016,0,13.762-3.675,13.762-10.89,0-5.011-2.673-8.218-9.086-10.422l-7.148-2.405c-2.071-.735-3.073-1.67-3.073-2.806,0-1.938,2.138-3.007,4.877-3.007,3.341,0,5.345,1.136,6.08,3.408l7.816-1.27h0Zm3.377,26.39h8.35v-19.843c0-4.543,3.475-7.95,8.218-7.95s8.218,3.407,8.218,7.95v19.843h8.284v-22.181c0-3.875-1.336-7.082-4.009-9.688-2.606-2.605-5.946-3.875-9.955-3.875-4.61,0-8.15,1.737-10.757,5.212V0h-8.35v49.73h0Zm47.523-24.519c1.871-1.938,4.209-2.873,6.948-2.873s5.078.935,6.948,2.873c1.871,1.937,2.806,4.276,2.806,7.148s-.936,5.212-2.806,7.149c-1.871,1.938-4.209,2.873-6.948,2.873s-5.078-.935-6.948-2.873c-1.871-1.937-2.806-4.276-2.806-7.149s.936-5.211,2.806-7.148h0Zm-6.213,20.31c3.541,3.475,7.884,5.212,13.162,5.212s9.621-1.737,13.162-5.212c3.541-3.54,5.278-7.883,5.278-13.161s-1.737-9.621-5.278-13.094c-3.541-3.541-7.883-5.279-13.162-5.279s-9.621,1.737-13.162,5.279c-3.474,3.474-5.211,7.817-5.211,13.094s1.737,9.621,5.211,13.161h0Z" style="fill: #fff; fill-rule: evenodd; stroke-width: 0px;"/>
</svg>