<svg xmlns="http://www.w3.org/2000/svg" width="56" height="56">
  <defs>
    <radialGradient id="b" cx="48.744%" cy="50.721%" r="34.598%" fx="48.744%" fy="50.721%">
      <stop offset="0%" stop-color="#F1F5F9"/>
      <stop offset="100%" stop-color="#F1F5F9" stop-opacity="0"/>
    </radialGradient>
    <linearGradient id="a" x1="50%" x2="50%" y1="100%" y2="0%">
      <stop offset="0%" stop-color="#334155"/>
      <stop offset="100%" stop-color="#94A3B8" stop-opacity=".601"/>
    </linearGradient>
  </defs>
  <g fill="none" fill-rule="evenodd">
    <circle cx="28" cy="28" r="28" fill="url(#a)"/>
    <circle cx="28" cy="28" r="27" fill="#1E293B"/>
    <circle cx="28" cy="28" r="27" fill="url(#b)" opacity=".079"/>
   
<svg xmlns="http://www.w3.org/2000/svg" viewBox="0 0 20 20" fill="#E2E8F0" x="13" y="13" width="30" height="30">
  <path d="M16.555 5.412a8.028 8.028 0 00-3.503-2.81 14.899 14.899 0 011.663 4.472 8.547 8.547 0 001.84-1.662zM13.326 7.825a13.43 13.43 0 00-2.413-5.773 8.087 8.087 0 00-1.826 0 13.43 13.43 0 00-2.413 5.773A8.473 8.473 0 0010 8.5c1.18 0 2.304-.24 3.326-.675zM6.514 9.376A9.98 9.98 0 0010 10c1.226 0 2.4-.22 3.486-.624a13.54 13.54 0 01-.351 3.759A13.54 13.54 0 0110 13.5c-1.079 0-2.128-.127-3.134-.366a13.538 13.538 0 01-.352-3.758zM5.285 7.074a14.9 14.9 0 011.663-4.471 8.028 8.028 0 00-3.503 2.81c.529.638 1.149 1.199 1.84 1.66zM17.334 6.798a7.973 7.973 0 01.614 4.115 13.47 13.47 0 01-3.178 1.72 15.093 15.093 0 00.174-3.939 10.043 10.043 0 002.39-1.896zM2.666 6.798a10.042 10.042 0 002.39 1.896 15.196 15.196 0 00.174 3.94 13.472 13.472 0 01-3.178-1.72 7.973 7.973 0 01.615-4.115zM10 15c.898 0 1.778-.079 2.633-.23a13.473 13.473 0 01-1.72 3.178 8.099 8.099 0 01-1.826 0 13.47 13.47 0 01-1.72-3.178c.855.151 1.735.23 2.633.23zM14.357 14.357a14.912 14.912 0 01-1.305 3.04 8.027 8.027 0 004.345-4.345c-.953.542-1.971.981-3.04 1.305zM6.948 17.397a8.027 8.027 0 01-4.345-4.345c.953.542 1.971.981 3.04 1.305a14.912 14.912 0 001.305 3.04z" />
</svg>



  </g>
</svg>
