<svg xmlns="http://www.w3.org/2000/svg" width="56" height="56">
  <defs>
    <radialGradient id="b" cx="48.744%" cy="50.721%" r="34.598%" fx="48.744%" fy="50.721%">
      <stop offset="0%" stop-color="#F1F5F9"/>
      <stop offset="100%" stop-color="#F1F5F9" stop-opacity="0"/>
    </radialGradient>
    <linearGradient id="a" x1="50%" x2="50%" y1="100%" y2="0%">
      <stop offset="0%" stop-color="#334155"/>
      <stop offset="100%" stop-color="#94A3B8" stop-opacity=".601"/>
    </linearGradient>
  </defs>
  <g fill="none" fill-rule="evenodd">
    <circle cx="28" cy="28" r="28" fill="url(#a)"/>
    <circle cx="28" cy="28" r="27" fill="#1E293B"/>
    <circle cx="28" cy="28" r="27" fill="url(#b)" opacity=".079"/>

<svg xmlns="http://www.w3.org/2000/svg" viewBox="0 0 20 20" fill="#E2E8F0" x="13" y="13" width="30" height="30">
  <path d="M3.25 4A2.25 2.25 0 001 6.25v7.5A2.25 2.25 0 003.25 16h7.5A2.25 2.25 0 0013 13.75v-7.5A2.25 2.25 0 0010.75 4h-7.5zM19 4.75a.75.75 0 00-1.28-.53l-3 3a.75.75 0 00-.22.53v4.5c0 .199.079.39.22.53l3 3a.75.75 0 001.28-.53V4.75z" />
</svg>


  </g>
</svg>
