<svg xmlns="http://www.w3.org/2000/svg" width="56" height="56">
  <defs>
    <radialGradient id="b" cx="48.744%" cy="50.721%" r="34.598%" fx="48.744%" fy="50.721%">
      <stop offset="0%" stop-color="#F1F5F9"/>
      <stop offset="100%" stop-color="#F1F5F9" stop-opacity="0"/>
    </radialGradient>
    <linearGradient id="a" x1="50%" x2="50%" y1="100%" y2="0%">
      <stop offset="0%" stop-color="#334155"/>
      <stop offset="100%" stop-color="#94A3B8" stop-opacity=".601"/>
    </linearGradient>
  </defs>
  <g fill="none" fill-rule="evenodd">
    <circle cx="28" cy="28" r="28" fill="url(#a)"/>
    <circle cx="28" cy="28" r="27" fill="#1E293B"/>
    <circle cx="28" cy="28" r="27" fill="url(#b)" opacity=".079"/>
<svg xmlns="http://www.w3.org/2000/svg" viewBox="0 0 20 20" fill="#E2E8F0" x="13" y="13" width="30" height="30">
  <path fill-rule="evenodd" d="M1.045 6.954a2.75 2.75 0 01.217-.678L2.53 3.58A2.75 2.75 0 015.019 2h9.962a2.75 2.75 0 012.488 1.58l1.27 2.696c.101.216.174.444.216.678A1 1 0 0119 7.25v1.5a2.75 2.75 0 01-2.75 2.75H3.75A2.75 2.75 0 011 8.75v-1.5a1 1 0 01.045-.296zm2.843-2.736A1.25 1.25 0 015.02 3.5h9.962c.484 0 .925.28 1.13.718l.957 2.032H14a1 1 0 00-.86.49l-.606 1.02a1 1 0 01-.86.49H8.236a1 1 0 01-.894-.553l-.448-.894A1 1 0 006 6.25H2.932l.956-2.032z" clip-rule="evenodd" />
  <path d="M1 14a1 1 0 011-1h4a1 1 0 01.894.553l.448.894a1 1 0 00.894.553h3.438a1 1 0 00.86-.49l.606-1.02A1 1 0 0114 13h4a1 1 0 011 1v2a2 2 0 01-2 2H3a2 2 0 01-2-2v-2z" />
</svg>


  </g>
</svg>
