<svg xmlns="http://www.w3.org/2000/svg" width="56" height="56">
  <defs>
    <radialGradient id="b" cx="48.744%" cy="50.721%" r="34.598%" fx="48.744%" fy="50.721%">
      <stop offset="0%" stop-color="#F1F5F9"/>
      <stop offset="100%" stop-color="#F1F5F9" stop-opacity="0"/>
    </radialGradient>
    <linearGradient id="a" x1="50%" x2="50%" y1="100%" y2="0%">
      <stop offset="0%" stop-color="#334155"/>
      <stop offset="100%" stop-color="#94A3B8" stop-opacity=".601"/>
    </linearGradient>
  </defs>
  <g fill="none" fill-rule="evenodd">
    <circle cx="28" cy="28" r="28" fill="url(#a)"/>
    <circle cx="28" cy="28" r="27" fill="#1E293B"/>
    <circle cx="28" cy="28" r="27" fill="url(#b)" opacity=".079"/>
<svg xmlns="http://www.w3.org/2000/svg" viewBox="0 0 20 20" fill="#E2E8F0" x="13" y="13" width="30" height="30">
  <path d="M8 10a1.5 1.5 0 113 0 1.5 1.5 0 01-3 0z" />
  <path fill-rule="evenodd" d="M4.5 2A1.5 1.5 0 003 3.5v13A1.5 1.5 0 004.5 18h11a1.5 1.5 0 001.5-1.5V7.621a1.5 1.5 0 00-.44-1.06l-4.12-4.122A1.5 1.5 0 0011.378 2H4.5zm5 5a3 3 0 101.524 5.585l1.196 1.195a.75.75 0 101.06-1.06l-1.195-1.196A3 3 0 009.5 7z" clip-rule="evenodd" />
</svg>


  </g>
</svg>
